<?xml version="1.0" encoding="utf-8"?>
<svg xmlns="http://www.w3.org/2000/svg" viewBox="0 0 500 500" xmlns:bx="https://boxy-svg.com" width="500px" height="500px"><defs><bx:export><bx:file format="svg"/><bx:file format="png" excluded="true"/></bx:export><path style="fill: none;" id="path-0" d="M 93.24 215.284 C 123.255 196.996 143.306 179.459 168.594 173.137 C 180.777 169.934 190.844 159.088 200.524 159.088 C 208.067 153.846 218.574 152.702 226.707 152.702 C 242.649 152.702 258.809 151.175 273.963 153.34 C 294.148 158.834 312.959 160.705 328.882 168.667 C 344.131 176.93 355.639 186.066 367.837 193.572 C 374.945 203.318 386.545 205.256 391.465 210.175 L 392.103 210.814 C 394.114 212.825 403.295 219.116 405.514 219.116"/><path id="text-path-0" d="M 50.96765999432864 243.12648010253906 Q 150.96765515890183 74.68899536132812 250.96765032347503 243.12648010253906"/><linearGradient gradientUnits="userSpaceOnUse" x1="250" y1="0" x2="250" y2="250" id="gradient-0"><stop offset="0" style="stop-color: #bada55"/><stop offset="1" style="stop-color: #758d29"/></linearGradient></defs><rect y="250" width="500" height="250" style="stroke: rgb(0, 0, 0); fill: rgb(196, 67, 27);" rx="35" ry="35"/><rect x="365" y="75" width="40" height="100" style="stroke: rgb(0, 0, 0); fill: rgb(213, 193, 141);" rx="15" ry="15"/><path d="M 225 25 Q 250 0 275 25 L 475 225 Q 500 250 450 250 L 50 250 Q 0 250 25 225 Z" bx:shape="triangle 0 0 500 250 0.5 0.1 1@21be8155" style="stroke: rgb(0, 0, 0); fill-rule: nonzero; paint-order: fill; fill: url(&quot;#gradient-0&quot;);"/><text style="fill: rgb(255, 255, 255); font-family: &quot;Arial&quot;, sans-serif; font-size: 150px; white-space: pre; transform-origin: -6.31115px 158.908px 0px;" transform="matrix(1, 0, 0, 1, 99.065788, 23.404476)"><textPath href="#text-path-0" startOffset="19">KiS</textPath></text><text style="font-family: &quot;Arial&quot;, sans-serif; font-size: 200px; font-weight: 700; text-anchor: middle; white-space: pre; text-decoration: underline overline;" x="250" y="445.18">DB</text><path stroke-width="0" d="M 395.868 38.665 C 399.897 37.763 406.778 38.524 411.195 40.058 C 415.266 41.471 417.696 46.162 421.645 47.024 C 425.779 47.928 431.645 44.202 435.578 44.934 C 439.028 45.577 442.263 47.447 444.286 50.159 C 446.52 53.155 447.432 60.68 447.769 62.699 C 447.907 63.525 447.804 63.319 447.769 64.092 C 447.694 65.729 448.179 70.286 447.072 73.149 C 445.881 76.232 442.992 79.803 440.454 81.857 C 438.169 83.706 435.858 84.707 432.791 85.34 C 429.115 86.099 423.133 85.989 419.555 85.34 C 416.703 84.823 414.874 82.361 412.588 82.554 C 410.228 82.752 408.768 85.713 405.622 86.733 C 401.341 88.121 393.032 89.63 388.205 88.823 C 384.146 88.145 381.042 86.691 378.104 83.599 C 374.404 79.704 370.377 70.785 369.047 65.486 C 368 61.312 367.965 57.747 369.047 54.339 C 370.144 50.889 372.692 46.849 375.666 44.934 C 378.622 43.031 384.948 42.708 386.812 42.844 C 387.655 42.906 387.477 43.651 388.205 43.541 C 389.679 43.318 392.606 39.394 395.868 38.665 Z" style="stroke-width: 2px; fill-opacity: 0.5; fill: rgb(197, 197, 197);"/><path stroke-width="0" d="M 426.358 1.218 C 430.364 1.076 437.803 4.006 440.639 6.443 C 442.757 8.262 441.694 12.288 443.774 13.061 C 446.46 14.059 452.944 8.4 457.01 8.881 C 460.931 9.345 465.728 12.957 467.809 15.499 C 469.444 17.498 468.186 21.023 469.898 22.117 C 471.891 23.39 476.582 20.691 480 21.421 C 483.769 22.225 489.145 25.074 491.495 27.342 C 493.25 29.036 493.758 30.536 494.281 32.915 C 494.958 35.991 495.438 41.294 494.281 44.758 C 493.161 48.115 490.708 51.653 487.663 53.467 C 484.429 55.392 480.112 55.568 475.123 55.557 C 468.772 55.543 458.911 52.31 452.134 52.073 C 446.388 51.873 441.037 53.592 436.808 53.467 C 433.476 53.368 432.104 52.026 428.448 52.073 C 423.105 52.142 412.413 56.609 406.852 55.557 C 402.466 54.727 398.335 50.459 396.75 48.938 C 395.974 48.193 396.347 47.936 395.705 47.197 C 394.601 45.925 391.14 44.756 389.784 41.972 C 387.917 38.141 386.344 30.211 387.694 24.556 C 389.148 18.46 394.326 10.128 399.188 6.791 C 403.49 3.839 411.358 3.816 414.515 4.004 C 416.301 4.111 416.52 5.52 417.998 5.398 C 420.127 5.222 423.06 1.335 426.358 1.218 Z" style="stroke-width: 2px; fill-opacity: 0.5; fill: rgb(197, 197, 197);"/><path stroke-width="0" d="M 387.779 0.401 C 392.695 0.009 397.09 2.558 399.971 4.929 C 402.53 7.036 403.96 9.838 404.847 13.289 C 405.914 17.437 403.78 25.615 404.847 28.615 C 405.497 30.442 406.579 30.656 407.982 31.75 C 409.812 33.177 413.447 34.571 415.297 36.279 C 416.898 37.756 417.898 38.739 418.78 41.155 C 420.093 44.748 421.7 52.845 420.87 57.178 C 420.181 60.776 418.358 63.863 415.645 65.886 C 412.65 68.12 407.386 69.625 403.106 69.37 C 398.574 69.099 393.644 64.287 389.173 63.796 C 385.08 63.348 381.811 66.274 377.33 65.886 C 371.856 65.413 364.42 62.73 358.52 59.616 C 352.438 56.407 344.561 50.563 341.452 46.728 C 339.407 44.206 339.211 42.877 338.665 39.762 C 337.889 35.33 337.223 26.444 338.665 21.649 C 339.868 17.65 342.249 14.165 345.284 12.244 C 348.373 10.289 353.902 9.966 357.127 10.154 C 359.665 10.303 360.389 12.614 363.396 12.244 C 368.686 11.594 381.185 0.927 387.779 0.401 Z" style="stroke-width: 2px; fill-opacity: 0.5; fill: rgb(197, 197, 197);"/></svg>