<?xml version="1.0" encoding="utf-8"?>
<svg xmlns="http://www.w3.org/2000/svg" viewBox="0 0 1150 600" style="" xmlns:bx="https://boxy-svg.com">
  <defs>
    <bx:export>
      <bx:file format="png"/>
      <bx:file format="svg" excluded="true"/>
    </bx:export>
    <filter id="saturate-filter-0" bx:preset="saturate 1 0.5" color-interpolation-filters="sRGB" x="-50%" y="-50%" width="200%" height="200%">
      <feColorMatrix type="saturate" values="0.5"/>
    </filter>
  </defs>
  <rect x="25" y="25" width="1100" height="550" style="stroke: rgb(0, 0, 0); transform-origin: 2px 300px 0px; stroke-opacity: 0; fill: rgb(255, 255, 255);" rx="50" ry="50"/>
  <rect x="50" y="225" width="150" height="150" style="stroke: rgb(0, 0, 0); transform-origin: 125px 300px 0px; fill: rgb(255, 199, 67); stroke-width: 2px;" rx="25" ry="25"/>
  <text style="font-family: &quot;Arial&quot;, sans-serif; font-size: 28px; font-weight: 700; text-anchor: middle; white-space: pre;" x="126.011" y="309.814">Vanilla</text>
  <line style="fill: none; stroke: rgb(0, 0, 0); stroke-width: 3px;" x1="200" y1="300" x2="350" y2="300"/>
  <rect x="350" y="225" width="150" height="150" style="stroke: rgb(0, 0, 0); transform-origin: 425px 300px 0px; fill: rgb(151, 255, 79); stroke-width: 2px;" rx="25" ry="25"/>
  <text style="font-family: &quot;Arial&quot;, sans-serif; font-size: 28px; font-weight: 700; text-anchor: middle; white-space: pre;" transform="matrix(1, 0, 0, 1, 0, 35.32877)"><tspan x="426.011" y="259.814">HTTP</tspan><tspan x="426.011" dy="1em">​</tspan><tspan>Client</tspan></text>
  <line style="fill: none; stroke: rgb(0, 0, 0); stroke-width: 3px;" x1="500" y1="305" x2="650" y2="305"/>
  <rect x="650" y="225" width="150" height="150" style="stroke: rgb(0, 0, 0); transform-origin: 725px 300px 0px; fill: rgb(97, 174, 255); stroke-width: 2px;" rx="25" ry="25"/>
  <text style="font-family: &quot;Arial&quot;, sans-serif; font-size: 28px; font-weight: 700; text-anchor: middle; white-space: pre;" transform="matrix(1, 0, 0, 1, 0, 35.32877)"><tspan x="726.011" y="259.814">HTTP</tspan><tspan x="726.011" dy="1em">​</tspan><tspan>Server</tspan></text>
  <line style="fill: none; stroke: rgb(0, 0, 0); stroke-width: 3px;" x1="800" y1="300" x2="950" y2="300"/>
  <rect x="950" y="225" width="150" height="150" style="stroke: rgb(0, 0, 0); transform-origin: 1025px 300px 0px; fill: rgb(209, 65, 252); stroke-width: 2px;" rx="25" ry="25"/>
  <text style="font-family: &quot;Arial&quot;, sans-serif; font-size: 28px; font-weight: 700; text-anchor: middle; white-space: pre;" x="1026.01" y="309.814">SQLiteDB</text>
  <rect x="50" y="400" width="150" height="150" style="stroke: rgb(0, 0, 0); transform-origin: 125px 475px 0px; opacity: 0.52; fill: rgb(255, 199, 67); stroke-width: 2px; filter: url(&quot;#saturate-filter-0&quot;);" rx="25" ry="25"/>
  <text style="font-family: &quot;Arial&quot;, sans-serif; font-size: 28px; font-weight: 700; text-anchor: middle; white-space: pre; opacity: 0.52;" x="126.011" y="484.814">Custom</text>
  <rect x="350" y="400" width="150" height="150" style="stroke: rgb(0, 0, 0); transform-origin: 425px 475px 0px; opacity: 0.52; fill: rgb(151, 255, 79); stroke-width: 2px; filter: url(&quot;#saturate-filter-0&quot;);" rx="25" ry="25"/>
  <text style="font-family: &quot;Arial&quot;, sans-serif; font-size: 28px; font-weight: 700; text-anchor: middle; white-space: pre; opacity: 0.52;" transform="matrix(1, 0, 0, 1, -0.000334, 210.329086)"><tspan x="426.011" y="259.814">WebSocket</tspan><tspan x="426.011" dy="1em">​</tspan><tspan>Client</tspan></text>
  <rect x="650" y="400" width="150" height="150" style="stroke: rgb(0, 0, 0); transform-origin: 725px 475px 0px; opacity: 0.52; fill: rgb(97, 174, 255); stroke-width: 2px; filter: url(&quot;#saturate-filter-0&quot;);" rx="25" ry="25"/>
  <text style="font-family: &quot;Arial&quot;, sans-serif; font-size: 28px; font-weight: 700; text-anchor: middle; white-space: pre; opacity: 0.52;" transform="matrix(1, 0, 0, 1, -0.000334, 210.329086)"><tspan x="726.011" y="259.814">WebSocket</tspan><tspan x="726.011" dy="1em">​</tspan><tspan>Server</tspan></text>
  <rect x="950" y="400" width="150" height="150" style="stroke: rgb(0, 0, 0); transform-origin: 1025px 475px 0px; opacity: 0.52; fill: rgb(209, 65, 252); stroke-width: 2px; filter: url(&quot;#saturate-filter-0&quot;);" rx="25" ry="25"/>
  <text style="font-family: &quot;Arial&quot;, sans-serif; font-size: 28px; font-weight: 700; text-anchor: middle; white-space: pre; opacity: 0.52;" x="1026.01" y="484.814">MongoDB</text>
  <rect x="50" width="150" height="150" style="stroke: rgb(0, 0, 0); transform-origin: 125px 125px 0px; opacity: 0.5; fill: rgb(255, 199, 67); stroke-width: 2px; filter: url(&quot;#saturate-filter-0&quot;);" rx="25" ry="25" y="50"/>
  <text style="font-family: &quot;Arial&quot;, sans-serif; font-size: 28px; font-weight: 700; text-anchor: middle; white-space: pre; opacity: 0.5;" x="126.011" y="134.814">React</text>
  <rect x="350" width="150" height="150" style="stroke: rgb(0, 0, 0); transform-origin: 425px 125px 0px; opacity: 0.5; fill: rgb(151, 255, 79); stroke-width: 2px; filter: url(&quot;#saturate-filter-0&quot;);" rx="25" ry="25" y="50"/>
  <text style="font-family: &quot;Arial&quot;, sans-serif; font-size: 28px; font-weight: 700; text-anchor: middle; white-space: pre; opacity: 0.5;" transform="matrix(1, 0, 0, 1, -0.000325, -139.670929)"><tspan x="426.011" y="259.814">MQTT</tspan><tspan x="426.011" dy="1em">​</tspan><tspan>Client</tspan></text>
  <rect x="650" width="150" height="150" style="stroke: rgb(0, 0, 0); transform-origin: 725px 125px 0px; opacity: 0.5; fill: rgb(97, 174, 255); stroke-width: 2px; filter: url(&quot;#saturate-filter-0&quot;);" rx="25" ry="25" y="50"/>
  <text style="font-family: &quot;Arial&quot;, sans-serif; font-size: 28px; font-weight: 700; text-anchor: middle; white-space: pre; opacity: 0.5;" transform="matrix(1, 0, 0, 1, -0.000325, -139.670929)"><tspan x="726.011" y="259.814">MQTT</tspan><tspan x="726.011" dy="1em">​</tspan><tspan>Server</tspan></text>
  <rect x="950" width="150" height="150" style="stroke: rgb(0, 0, 0); transform-origin: 1025px 125px 0px; opacity: 0.5; fill: rgb(209, 65, 252); stroke-width: 2px; filter: url(&quot;#saturate-filter-0&quot;);" rx="25" ry="25" y="50"/>
  <text style="font-family: &quot;Arial&quot;, sans-serif; font-size: 28px; font-weight: 700; text-anchor: middle; white-space: pre; opacity: 0.5;" x="1026.01" y="134.814">Postgres</text>
  <line style="fill: none; stroke: rgb(0, 0, 0); stroke-width: 3px; opacity: 0.25;" x1="500" y1="120" x2="650" y2="120"/>
  <line style="fill: none; stroke: rgb(0, 0, 0); stroke-width: 3px; opacity: 0.25;" x1="500" y1="470" x2="650" y2="470"/>
  <line style="fill: none; stroke: rgb(0, 0, 0); stroke-width: 3px;" x1="500" y1="295" x2="650" y2="295"/>
  <line style="fill: none; stroke: rgb(0, 0, 0); stroke-width: 3px; opacity: 0.25;" x1="500" y1="130" x2="650" y2="130"/>
  <line style="fill: none; stroke: rgb(0, 0, 0); stroke-width: 3px; opacity: 0.25;" x1="500" y1="480" x2="650" y2="480"/>
  <line style="fill: none; stroke: rgb(0, 0, 0); opacity: 0.25; stroke-width: 2px;" x1="800" y1="125" x2="950" y2="300"/>
  <line style="fill: none; stroke: rgb(0, 0, 0); opacity: 0.25; stroke-width: 2px;" x1="800" y1="475" x2="950" y2="300"/>
  <line style="fill: none; stroke: rgb(0, 0, 0); opacity: 0.25; stroke-width: 2px;" x1="800" y1="125" x2="950" y2="125"/>
  <line style="fill: none; stroke: rgb(0, 0, 0); opacity: 0.25; stroke-width: 2px;" x1="800" y1="300" x2="950" y2="125"/>
  <line style="fill: none; stroke: rgb(0, 0, 0); opacity: 0.25; stroke-width: 2px;" x1="800" y1="475" x2="950" y2="125"/>
  <line style="fill: none; stroke: rgb(0, 0, 0); opacity: 0.25; stroke-width: 2px;" x1="800" y1="475" x2="950" y2="475"/>
  <line style="fill: none; stroke: rgb(0, 0, 0); opacity: 0.25; stroke-width: 2px;" x1="800" y1="300" x2="950" y2="475"/>
  <line style="fill: none; stroke: rgb(0, 0, 0); opacity: 0.25; stroke-width: 2px;" x1="800" y1="125" x2="950" y2="475"/>
  <line style="fill: none; stroke: rgb(0, 0, 0); opacity: 0.25; stroke-width: 2px;" x1="199.977" y1="125" x2="349.977" y2="300"/>
  <line style="fill: none; stroke: rgb(0, 0, 0); opacity: 0.25; stroke-width: 2px;" x1="199.977" y1="475" x2="349.977" y2="300"/>
  <line style="fill: none; stroke: rgb(0, 0, 0); opacity: 0.25; stroke-width: 2px;" x1="199.977" y1="125" x2="349.977" y2="125"/>
  <line style="fill: none; stroke: rgb(0, 0, 0); opacity: 0.25; stroke-width: 2px;" x1="199.977" y1="300" x2="349.977" y2="125"/>
  <line style="fill: none; stroke: rgb(0, 0, 0); opacity: 0.25; stroke-width: 2px;" x1="199.977" y1="475" x2="349.977" y2="125"/>
  <line style="fill: none; stroke: rgb(0, 0, 0); opacity: 0.25; stroke-width: 2px;" x1="199.977" y1="475" x2="349.977" y2="475"/>
  <line style="fill: none; stroke: rgb(0, 0, 0); opacity: 0.25; stroke-width: 2px;" x1="199.977" y1="300" x2="349.977" y2="475"/>
  <line style="fill: none; stroke: rgb(0, 0, 0); opacity: 0.25; stroke-width: 2px;" x1="199.977" y1="125" x2="349.977" y2="475"/>
</svg>